<svg xmlns="http://www.w3.org/2000/svg" width="63" height="63" viewBox="0 0 63 63">
  <g id="Play_video" data-name="Play video" transform="translate(-0.047 0.061)">
    <circle id="Ellipse_5" data-name="Ellipse 5" cx="31.5" cy="31.5" r="31.5" transform="translate(0.047 -0.061)" fill="#fff"/>
    <g id="Layer_2" data-name="Layer 2" transform="translate(8.043 8.506)">
      <g id="play-circle" transform="translate(0 0)">
        <rect id="Rectangle_18" data-name="Rectangle 18" width="47" height="47" transform="translate(0.004 0.433)" fill="#f56962" opacity="0"/>
        <path id="Path_8" data-name="Path 8" d="M15.028,7.874a3.3,3.3,0,0,0-3.595-.583A3.109,3.109,0,0,0,9.49,10.167v13.1a3.109,3.109,0,0,0,1.943,2.876,3.264,3.264,0,0,0,1.341.291,3.381,3.381,0,0,0,2.254-.874l7.111-6.548a3.109,3.109,0,0,0,0-4.586Z" transform="translate(9.296 7.193)" fill="#ff5d21"/>
      </g>
    </g>
  </g>
</svg>
