<svg xmlns="http://www.w3.org/2000/svg" width="303.534" height="230.785" viewBox="0 0 303.534 230.785">
  <g id="Group_56756" data-name="Group 56756" transform="translate(-533.386 -356)">
    <circle id="Ellipse_5" data-name="Ellipse 5" cx="84" cy="84" r="84" transform="translate(603.999 418.785)" fill="#ffede7"/>
    <path id="Path_4" data-name="Path 4" d="M99.393,30,53.932,75.461,30,51.495" transform="translate(623.499 447.285)" fill="none" stroke="#ff4d00" stroke-linecap="round" stroke-linejoin="round" stroke-width="15"/>
    <path id="Path_5" data-name="Path 5" d="M8.984,3.688H7.706a.819.819,0,0,1-.822-.822V1.587A1.654,1.654,0,0,0,5.377-.1a1.61,1.61,0,0,0-1.69,1.6v1.37a.819.819,0,0,1-.822.822H1.587A1.654,1.654,0,0,0-.1,5.194a1.61,1.61,0,0,0,1.6,1.69h1.37a.819.819,0,0,1,.822.822V8.984a1.654,1.654,0,0,0,1.507,1.69,1.61,1.61,0,0,0,1.69-1.6V7.706a.819.819,0,0,1,.822-.822h1.37a1.61,1.61,0,0,0,1.6-1.69A1.689,1.689,0,0,0,8.984,3.688Z" transform="matrix(0.951, -0.309, 0.309, 0.951, 586.894, 451.825)" fill="#feeb72"/>
    <path id="Path_5-2" data-name="Path 5" d="M4.331,1.746H3.707a.4.4,0,0,1-.4-.4V.721A.807.807,0,0,0,2.57-.1a.785.785,0,0,0-.824.78v.668a.4.4,0,0,1-.4.4H.721A.807.807,0,0,0-.1,2.481a.785.785,0,0,0,.78.824h.668a.4.4,0,0,1,.4.4v.624a.807.807,0,0,0,.735.824.785.785,0,0,0,.824-.78V3.707a.4.4,0,0,1,.4-.4h.668a.785.785,0,0,0,.78-.824A.824.824,0,0,0,4.331,1.746Z" transform="matrix(0.966, 0.259, -0.259, 0.966, 535.434, 430.84)" fill="#f98585" stroke="#fe594e" stroke-width="1"/>
    <path id="Path_5-3" data-name="Path 5" d="M6.37,2.6H5.459a.583.583,0,0,1-.585-.585V1.1A1.178,1.178,0,0,0,3.8-.1,1.147,1.147,0,0,0,2.6,1.035v.976a.583.583,0,0,1-.585.585H1.1A1.178,1.178,0,0,0-.1,3.67a1.147,1.147,0,0,0,1.138,1.2h.976a.583.583,0,0,1,.585.585V6.37a1.178,1.178,0,0,0,1.073,1.2,1.147,1.147,0,0,0,1.2-1.138V5.459a.583.583,0,0,1,.585-.585h.976a1.147,1.147,0,0,0,1.138-1.2A1.2,1.2,0,0,0,6.37,2.6Z" transform="translate(604.188 406.487) rotate(30)" fill="#2ee2b1"/>
    <path id="Path_5-4" data-name="Path 5" d="M10.5,4.322H9.012a.955.955,0,0,1-.959-.959V1.87A1.931,1.931,0,0,0,6.294-.1,1.879,1.879,0,0,0,4.322,1.763v1.6a.955.955,0,0,1-.959.959H1.87A1.931,1.931,0,0,0-.1,6.081,1.879,1.879,0,0,0,1.763,8.053h1.6a.955.955,0,0,1,.959.959V10.5a1.931,1.931,0,0,0,1.759,1.972,1.879,1.879,0,0,0,1.972-1.865v-1.6a.955.955,0,0,1,.959-.959h1.6a1.879,1.879,0,0,0,1.865-1.972A1.972,1.972,0,0,0,10.5,4.322Z" transform="matrix(0.921, 0.391, -0.391, 0.921, 759.276, 361.477)" fill="#feeb72"/>
    <path id="Path_5-5" data-name="Path 5" d="M5.521,2.242H4.729a.507.507,0,0,1-.509-.509V.942A1.024,1.024,0,0,0,3.288-.1,1,1,0,0,0,2.242.886v.848a.507.507,0,0,1-.509.509H.942A1.024,1.024,0,0,0-.1,3.175,1,1,0,0,0,.886,4.221h.848a.507.507,0,0,1,.509.509v.791a1.024,1.024,0,0,0,.933,1.046,1,1,0,0,0,1.046-.989V4.729a.507.507,0,0,1,.509-.509h.848a1,1,0,0,0,.989-1.046A1.045,1.045,0,0,0,5.521,2.242Z" transform="translate(786.339 498.592) rotate(16)" fill="#e8eeff"/>
    <path id="Path_5-6" data-name="Path 5" d="M4.7,1.9H4.02a.432.432,0,0,1-.434-.434V.789A.873.873,0,0,0,2.79-.1.85.85,0,0,0,1.9.741v.723a.432.432,0,0,1-.434.434H.789a.873.873,0,0,0-.892.8.85.85,0,0,0,.844.892h.723A.432.432,0,0,1,1.9,4.02V4.7a.873.873,0,0,0,.8.892.85.85,0,0,0,.892-.844V4.02a.432.432,0,0,1,.434-.434h.723a.85.85,0,0,0,.844-.892A.892.892,0,0,0,4.7,1.9Z" transform="matrix(0.875, -0.485, 0.485, 0.875, 821.827, 437.521)" fill="#e8eeff"/>
    <path id="Path_5-7" data-name="Path 5" d="M2.419.948H2.064A.227.227,0,0,1,1.836.72V.365A.459.459,0,0,0,1.417-.1.447.447,0,0,0,.948.34V.72A.227.227,0,0,1,.72.948H.365A.459.459,0,0,0-.1,1.367a.447.447,0,0,0,.444.469H.72a.227.227,0,0,1,.228.228v.355a.459.459,0,0,0,.418.469.447.447,0,0,0,.469-.444v-.38a.227.227,0,0,1,.228-.228h.38a.447.447,0,0,0,.444-.469A.469.469,0,0,0,2.419.948Z" transform="matrix(0.875, -0.485, 0.485, 0.875, 754.662, 473.047)" fill="#d1dcfc"/>
    <path id="Path_5-8" data-name="Path 5" d="M3.536,1.415H3.024a.328.328,0,0,1-.329-.329V.573a.663.663,0,0,0-.6-.677.645.645,0,0,0-.677.64v.549a.328.328,0,0,1-.329.329H.573a.663.663,0,0,0-.677.6.645.645,0,0,0,.64.677h.549a.328.328,0,0,1,.329.329v.512a.663.663,0,0,0,.6.677.645.645,0,0,0,.677-.64V3.024a.328.328,0,0,1,.329-.329h.549a.645.645,0,0,0,.64-.677A.677.677,0,0,0,3.536,1.415Z" transform="translate(626.015 426.125) rotate(13)" fill="#e8eeff"/>
    <path id="Path_5-9" data-name="Path 5" d="M4.763,1.927H4.079a.438.438,0,0,1-.44-.44V.8a.886.886,0,0,0-.807-.9.862.862,0,0,0-.9.856v.734a.438.438,0,0,1-.44.44H.8a.886.886,0,0,0-.9.807.862.862,0,0,0,.856.9h.734a.438.438,0,0,1,.44.44v.685a.886.886,0,0,0,.807.9.862.862,0,0,0,.9-.856V4.079a.438.438,0,0,1,.44-.44h.734a.862.862,0,0,0,.856-.9A.9.9,0,0,0,4.763,1.927Z" transform="translate(700.641 387.001) rotate(-51)" fill="#e8eeff"/>
    <path id="Path_5-10" data-name="Path 5" d="M3.536,1.415H3.024a.328.328,0,0,1-.329-.329V.573a.663.663,0,0,0-.6-.677.645.645,0,0,0-.677.64v.549a.328.328,0,0,1-.329.329H.573a.663.663,0,0,0-.677.6.645.645,0,0,0,.64.677h.549a.328.328,0,0,1,.329.329v.512a.663.663,0,0,0,.6.677.645.645,0,0,0,.677-.64V3.024a.328.328,0,0,1,.329-.329h.549a.645.645,0,0,0,.64-.677A.677.677,0,0,0,3.536,1.415Z" transform="translate(664.015 356.125) rotate(13)" fill="#e8eeff"/>
    <path id="Path_5-11" data-name="Path 5" d="M3.536,1.415H3.024a.328.328,0,0,1-.329-.329V.573a.663.663,0,0,0-.6-.677.645.645,0,0,0-.677.64v.549a.328.328,0,0,1-.329.329H.573a.663.663,0,0,0-.677.6.645.645,0,0,0,.64.677h.549a.328.328,0,0,1,.329.329v.512a.663.663,0,0,0,.6.677.645.645,0,0,0,.677-.64V3.024a.328.328,0,0,1,.329-.329h.549a.645.645,0,0,0,.64-.677A.677.677,0,0,0,3.536,1.415Z" transform="translate(626.015 461.125) rotate(13)" fill="#d1dcfc"/>
    <path id="Path_5-12" data-name="Path 5" d="M3.536,1.415H3.024a.328.328,0,0,1-.329-.329V.573a.663.663,0,0,0-.6-.677.645.645,0,0,0-.677.64v.549a.328.328,0,0,1-.329.329H.573a.663.663,0,0,0-.677.6.645.645,0,0,0,.64.677h.549a.328.328,0,0,1,.329.329v.512a.663.663,0,0,0,.6.677.645.645,0,0,0,.677-.64V3.024a.328.328,0,0,1,.329-.329h.549a.645.645,0,0,0,.64-.677A.677.677,0,0,0,3.536,1.415Z" transform="translate(564.015 421.125) rotate(13)" fill="#e8eeff"/>
    <path id="Path_5-13" data-name="Path 5" d="M4.009,1.612H3.431a.37.37,0,0,1-.372-.372V.661A.749.749,0,0,0,2.377-.1.729.729,0,0,0,1.612.62v.62a.37.37,0,0,1-.372.372H.661A.749.749,0,0,0-.1,2.294a.729.729,0,0,0,.723.765h.62a.37.37,0,0,1,.372.372v.579a.749.749,0,0,0,.682.765.729.729,0,0,0,.765-.723v-.62a.37.37,0,0,1,.372-.372h.62a.729.729,0,0,0,.723-.765A.765.765,0,0,0,4.009,1.612Z" transform="translate(598.594 386.452) rotate(13)" fill="#e8eeff"/>
    <g id="Ellipse_1" data-name="Ellipse 1" transform="translate(576.75 499.785)" fill="#fff" stroke="#e8eeff" stroke-width="2.5">
      <circle cx="5" cy="5" r="5" stroke="none"/>
      <circle cx="5" cy="5" r="3.75" fill="none"/>
    </g>
    <g id="Ellipse_6" data-name="Ellipse 6" transform="translate(746.75 426.785)" fill="none" stroke="#e8eeff" stroke-width="0.75">
      <circle cx="1.5" cy="1.5" r="1.5" stroke="none"/>
      <circle cx="1.5" cy="1.5" r="1.125" fill="none"/>
    </g>
    <g id="Ellipse_7" data-name="Ellipse 7" transform="translate(738.75 445.785)" fill="none" stroke="#d1dcfc" stroke-width="0.75">
      <circle cx="1.5" cy="1.5" r="1.5" stroke="none"/>
      <circle cx="1.5" cy="1.5" r="1.125" fill="none"/>
    </g>
    <g id="Ellipse_2" data-name="Ellipse 2" transform="translate(642.75 400.785)" fill="#fff" stroke="#fe594e" stroke-width="2">
      <circle cx="5.5" cy="5.5" r="5.5" stroke="none"/>
      <circle cx="5.5" cy="5.5" r="4.5" fill="none"/>
    </g>
    <g id="Ellipse_3" data-name="Ellipse 3" transform="translate(822.75 463.785)" fill="#fff" stroke="#229ff2" stroke-width="2">
      <circle cx="5.5" cy="5.5" r="5.5" stroke="none"/>
      <circle cx="5.5" cy="5.5" r="4.5" fill="none"/>
    </g>
    <g id="Ellipse_4" data-name="Ellipse 4" transform="translate(781.75 531.785)" fill="none" stroke="#feeb72" stroke-width="1.5">
      <circle cx="3.5" cy="3.5" r="3.5" stroke="none"/>
      <circle cx="3.5" cy="3.5" r="2.75" fill="none"/>
    </g>
    <g id="Ellipse_8" data-name="Ellipse 8" transform="translate(731.75 402.785)" fill="none" stroke="#feeb72" stroke-width="1.5">
      <circle cx="3.5" cy="3.5" r="3.5" stroke="none"/>
      <circle cx="3.5" cy="3.5" r="2.75" fill="none"/>
    </g>
    <path id="Path_6" data-name="Path 6" d="M2.6,10.737,7.079,3l4.479,7.737Z" transform="translate(823.848 499.972) rotate(7)" fill="none" stroke="#fe594e" stroke-linecap="round" stroke-width="2"/>
    <path id="Path_8" data-name="Path 8" d="M2.6,9.188,6.183,3,9.765,9.188Z" transform="matrix(0.94, 0.342, -0.342, 0.94, 782.205, 444.232)" fill="none" stroke="#2ee2b1" stroke-linecap="round" stroke-width="1.75"/>
    <path id="Path_7" data-name="Path 7" d="M2.6,5.873,4.264,3,5.927,5.873Z" transform="translate(764.719 445.419) rotate(-25)" fill="none" stroke="#e8edfc" stroke-linecap="round" stroke-width="0.75"/>
  </g>
</svg>
