<svg xmlns="http://www.w3.org/2000/svg" width="30.539" height="18.629" viewBox="0 0 30.539 18.629">
  <path id="Path_11617" data-name="Path 11617" d="M29.556,12.823l2.614-2.614a1.52,1.52,0,0,0,.327-.98,1.152,1.152,0,0,0-.654-.762L20.951,4.109a.994.994,0,0,0-1.2.218L17.248,6.832,14.743,4.327a.994.994,0,0,0-1.2-.218L2.653,8.466A1.152,1.152,0,0,0,2,9.228a1.52,1.52,0,0,0,.327.98l2.614,2.614L2.218,16.417A1.464,1.464,0,0,0,2,17.4a1.464,1.464,0,0,0,.653.762l10.892,4.357c.109,0,.218.109.436.109a.991.991,0,0,0,.871-.436l2.4-3.159,2.4,3.159a.991.991,0,0,0,.871.436.655.655,0,0,0,.436-.109l10.892-4.357A1.152,1.152,0,0,0,32.5,17.4a1.111,1.111,0,0,0-.218-.98Zm-12.308,3.05L9.3,12.714l7.951-3.159L25.2,12.714Z" transform="translate(-2 -3.996)" fill="#fff"/>
</svg>
