<svg xmlns="http://www.w3.org/2000/svg" width="40.351" height="50.944" viewBox="0 0 40.351 50.944">
  <path id="Path_12194" data-name="Path 12194" d="M311.3,212.773l6.3-4.05-5.265-4.406a25.9,25.9,0,0,0,1.468-11.33,33.136,33.136,0,0,0-.828-5.577l-.705-2.71-9.721,11.813a10.066,10.066,0,0,0-8.4,0L284.435,184.7l-.705,2.71a33.19,33.19,0,0,0-.828,5.577,25.9,25.9,0,0,0,1.468,11.33l-5.265,4.406,6.3,4.05-7.229,6.441,10.5,6.508,2.228,9.923,7.338-6.43,7.567,6.379,2.216-9.874,10.5-6.508-7.229-6.441Zm-6.429.736-2.052-6.45,1.329-5.873,8.645,7.234Zm5.138-11.142-5.078-4.249,5.811-7.061A26.554,26.554,0,0,1,310.012,202.367Zm-8.353-3.11-1.794,7.928,2.766,8.693-1.118,3.222h-1.734l.017-3.75-2.856-.013-.017,3.763H295.2l-1.118-3.222,2.766-8.693-1.794-7.928a7.158,7.158,0,0,1,6.606,0Zm-15.691-8.2,5.811,7.062-5.078,4.249A26.558,26.558,0,0,1,285.968,191.057Zm6.594,10.129,1.329,5.873-2.052,6.45-7.922-5.089Zm12.946,22.74-1.449,6.454-5.847-4.93-5.568,4.879-1.438-6.4-8.269-5.124,4.968-4.426,3.389,2.177,1.875,5.4h10.376l1.875-5.4,3.389-2.177,4.968,4.426-8.269,5.124Z" transform="translate(-278.18 -184.7)" fill="#fff"/>
</svg>
