<svg xmlns="http://www.w3.org/2000/svg" width="22.101" height="22.101" viewBox="0 0 22.101 22.101">
  <g id="parcel-svgrepo-com" transform="translate(-2 -2)">
    <rect id="Rectangle_3837" data-name="Rectangle 3837" width="4" height="3" transform="translate(11.101 2.101)" fill="#fff"/>
    <path id="Path_12197" data-name="Path 12197" d="M21.733,2H17V5.947a.746.746,0,0,1-.789.789H9.893A.746.746,0,0,1,9.1,5.947V2H4.368A2.326,2.326,0,0,0,2,4.368V21.733A2.326,2.326,0,0,0,4.368,24.1H21.733A2.326,2.326,0,0,0,24.1,21.733V4.368A2.326,2.326,0,0,0,21.733,2ZM7.762,12.577l1.579-1.658h0a.763.763,0,0,1,1.105,0h0l1.579,1.658a.763.763,0,0,1,0,1.105.763.763,0,0,1-1.105,0l-.237-.237V17A.789.789,0,1,1,9.1,17V13.445l-.237.237a.781.781,0,1,1-1.105-1.105ZM17,20.155H9.1a.789.789,0,1,1,0-1.579H17a.789.789,0,1,1,0,1.579Zm1.342-6.473a.763.763,0,0,1-1.105,0L17,13.445V17a.789.789,0,1,1-1.579,0V13.445l-.237.237a.781.781,0,1,1-1.105-1.105l1.579-1.658h0a.763.763,0,0,1,1.105,0h0l1.579,1.658A.762.762,0,0,1,18.339,13.682Z" fill="#fff"/>
  </g>
</svg>
