<svg xmlns="http://www.w3.org/2000/svg" width="19.634" height="19.634" viewBox="0 0 19.634 19.634">
  <path id="question-square-fill-svgrepo-com" d="M9.774,26.06H22.722c2.229,0,3.338-1.109,3.338-3.306V9.732c0-2.2-1.109-3.306-3.338-3.306H9.774c-2.218,0-3.349,1.1-3.349,3.306V22.754C6.426,24.961,7.556,26.06,9.774,26.06Zm6.282-7.519a.79.79,0,0,1-.9-.875v-.149a2.6,2.6,0,0,1,1.4-2.25c.992-.672,1.45-1.056,1.45-1.824,0-.843-.661-1.418-1.674-1.418a1.825,1.825,0,0,0-1.653.981c-.363.427-.469.757-1.1.757A.75.75,0,0,1,12.814,13a1.942,1.942,0,0,1,.085-.555c.288-1.034,1.578-1.93,3.5-1.93s3.562.992,3.562,2.848c0,1.344-.779,1.984-1.866,2.72-.768.523-1.141.907-1.141,1.536v.139A.811.811,0,0,1,16.056,18.541Zm.032,3.21a1.153,1.153,0,1,1,0-2.3,1.153,1.153,0,1,1,0,2.3Z" transform="translate(-6.426 -6.426)" fill="#fff"/>
</svg>
