<svg id="icon" xmlns="http://www.w3.org/2000/svg" xmlns:xlink="http://www.w3.org/1999/xlink" width="76" height="75" viewBox="0 0 76 75">
  <defs>
    <clipPath id="clip-path">
      <rect id="Rectangle_5" data-name="Rectangle 5" width="38.526" height="41.489" transform="translate(0 0)" fill="#fff"/>
    </clipPath>
  </defs>
  <rect id="icon_Background_" data-name="icon (Background)" width="76" height="75" rx="24" fill="#ff5d21"/>
  <g id="Group_56738" data-name="Group 56738" transform="translate(19 17)">
    <g id="Group_9" data-name="Group 9" transform="translate(0 0)" clip-path="url(#clip-path)">
      <path id="Path_32" data-name="Path 32" d="M10.952,23.618a1.476,1.476,0,0,0-2.952,0,3.048,3.048,0,0,0,3.043,3.045h16.05a3.048,3.048,0,0,0,3.045-3.045V9.044A3.048,3.048,0,0,0,27.093,6H11.043A3.048,3.048,0,0,0,8,9.044v8.762a1.476,1.476,0,1,0,2.952,0l.092-8.855,2.86.018v5.887a1.475,1.475,0,0,0,1.476,1.476h7.379a1.475,1.475,0,0,0,1.476-1.476V11.9a1.476,1.476,0,1,0-2.952,0V13.38H16.855v-4.4l10.331.059-.093,14.666Z" transform="translate(3.807 3.02)" fill="#fff"/>
      <path id="Path_33" data-name="Path 33" d="M36.9,32.469H15.312a6.464,6.464,0,0,1-6.457-6.457V9.5A8.714,8.714,0,0,0,5.384,2.563L2.362.3A1.476,1.476,0,0,0,.591,2.656L3.615,4.923A5.755,5.755,0,0,1,5.9,9.5V26.012a9.419,9.419,0,0,0,9.409,9.409H36.9a1.476,1.476,0,1,0,0-2.952" transform="translate(0 0.166)" fill="#fff"/>
      <path id="Path_34" data-name="Path 34" d="M4.428,22a4.428,4.428,0,1,0,4.428,4.428A4.433,4.433,0,0,0,4.428,22m0,5.9A1.476,1.476,0,1,1,5.9,26.428,1.477,1.477,0,0,1,4.428,27.9" transform="translate(0 10.635)" fill="#fff"/>
    </g>
  </g>
</svg>
