<svg id="icon" xmlns="http://www.w3.org/2000/svg" xmlns:xlink="http://www.w3.org/1999/xlink" width="76" height="75" viewBox="0 0 76 75">
  <defs>
    <clipPath id="clip-path">
      <rect id="Rectangle_7" data-name="Rectangle 7" width="39.766" height="34.493" fill="#fff"/>
    </clipPath>
  </defs>
  <rect id="icon_Background_" data-name="icon (Background)" width="76" height="75" rx="24" fill="#ff5d21"/>
  <g id="Group_14" data-name="Group 14" transform="translate(18.117 20.253)">
    <g id="Group_13" data-name="Group 13" clip-path="url(#clip-path)">
      <path id="Path_39" data-name="Path 39" d="M11,16.192a37,37,0,0,0,4.187,6.281,1.437,1.437,0,0,0,2.218,0,37.086,37.086,0,0,0,4.187-6.281,36.791,36.791,0,0,0,2.389-5.628A7.939,7.939,0,0,0,22.86,3.353a8.1,8.1,0,0,0-13.126,0,7.933,7.933,0,0,0-1.122,7.209A36.9,36.9,0,0,0,11,16.192M12.064,5.037a5.224,5.224,0,0,1,8.467,0,5.09,5.09,0,0,1,.721,4.625,33.71,33.71,0,0,1-2.2,5.188A33.881,33.881,0,0,1,16.3,19.226a34.2,34.2,0,0,1-2.752-4.375,33.852,33.852,0,0,1-2.2-5.188,5.09,5.09,0,0,1,.723-4.625" transform="translate(3.586)" fill="#fff"/>
      <path id="Path_40" data-name="Path 40" d="M39.736,27.581,37.307,10.568A3.007,3.007,0,0,0,34.345,8h-4.4a1.437,1.437,0,0,0,0,2.874h4.4a.115.115,0,0,1,.115.1l2.43,17.012-.116.134H2.992l-.115-.134L5.306,10.975a.115.115,0,0,1,.115-.1h4.4A1.437,1.437,0,1,0,9.823,8h-4.4a3.007,3.007,0,0,0-2.962,2.568L.03,27.579A2.992,2.992,0,0,0,2.992,31H36.774a2.992,2.992,0,0,0,2.962-3.415" transform="translate(0 3.498)" fill="#fff"/>
      <path id="Path_41" data-name="Path 41" d="M14.709,9.749a2.874,2.874,0,1,0-2.874-2.874,2.877,2.877,0,0,0,2.874,2.874" transform="translate(5.174 1.749)" fill="#fff"/>
    </g>
  </g>
</svg>
