<svg xmlns="http://www.w3.org/2000/svg" width="76" height="75" viewBox="0 0 76 75">
  <g id="icon" transform="translate(0 0)">
    <rect id="icon_Background_" data-name="icon (Background)" width="76" height="75" rx="24" transform="translate(0 0)" fill="#ff5d21"/>
    <g id="b" transform="translate(11 7)">
      <g id="Group_56739" data-name="Group 56739" transform="translate(0 0)">
        <g id="Path_89328" data-name="Path 89328" fill="#fff">
          <path d="M 37.09860610961914 51.03569412231445 L 13.14569568634033 51.03569412231445 C 10.58405590057373 51.03569412231445 8.500005722045898 48.95164489746094 8.500005722045898 46.38999557495117 L 8.500005722045898 14.14559555053711 C 8.500005722045898 11.58394527435303 10.58405590057373 9.499895095825195 13.14569568634033 9.499895095825195 L 37.09869384765625 9.499895095825195 C 39.66034698486328 9.499895095825195 41.7443962097168 11.58394527435303 41.7443962097168 14.14559555053711 L 41.7443962097168 15.84624481201172 C 42.96816253662109 16.21164894104004 44.6368408203125 16.97959518432617 46.25589370727539 17.72468566894531 L 46.36062622070312 17.77276611328125 C 46.90268707275391 18.02163505554199 47.41469573974609 18.25669479370117 47.86655426025391 18.45532608032227 C 48.44994735717773 18.71218490600586 49.08126449584961 18.84235572814941 49.74323654174805 18.84235572814941 C 50.23269271850586 18.84234619140625 50.56894302368164 18.76942825317383 50.64404678344727 18.75153541564941 L 50.64486694335938 18.7512264251709 L 50.67206573486328 18.74430465698242 C 50.75224685668945 18.72390556335449 50.83450698852539 18.71355628967285 50.91656494140625 18.71355628967285 C 51.12993621826172 18.71355628967285 51.33160400390625 18.7813549041748 51.49977493286133 18.90960502624512 C 51.7369270324707 19.09091567993164 51.87823486328125 19.37630462646484 51.87823486328125 19.67337608337402 L 51.87823486328125 32.57109451293945 C 51.87823486328125 32.80083465576172 51.7956657409668 33.02335739135742 51.64573669433594 33.19766616821289 C 51.53501510620117 33.32676696777344 50.49645614624023 34.46377563476562 48.29954528808594 34.46377563476562 C 45.73736572265625 34.46377563476562 43.73493576049805 33.52410507202148 42.12594604492188 32.76906585693359 C 41.99143218994141 32.70581817626953 41.86481475830078 32.64667129516602 41.74430465698242 32.59115600585938 L 41.74430465698242 46.38999557495117 C 41.74430465698242 48.95164489746094 39.66025543212891 51.03569412231445 37.09860610961914 51.03569412231445 Z M 13.14569568634033 11.42125511169434 C 11.64343547821045 11.42125511169434 10.42126560211182 12.64342594146729 10.42126560211182 14.14568519592285 L 10.42126560211182 46.38999557495117 C 10.42126560211182 47.89225387573242 11.64343547821045 49.11442565917969 13.14569568634033 49.11442565917969 L 37.09852600097656 49.11442565917969 C 38.60078430175781 49.11442565917969 39.82295608520508 47.89225387573242 39.82295608520508 46.38999557495117 L 39.82295608520508 31.96785354614258 C 39.41135406494141 31.9376335144043 38.97629928588867 31.91756629943848 38.51994705200195 31.89651489257812 L 38.49966430664062 31.89558601379395 C 37.82642364501953 31.86424446105957 37.16592788696289 31.83023834228516 36.51477813720703 31.76631355285645 C 35.74273681640625 34.10063552856445 34.30305480957031 36.10543823242188 32.33211517333984 37.58400726318359 C 30.24213600158691 39.1518669128418 27.74893569946289 39.98059463500977 25.1220645904541 39.98059463500977 C 18.49651527404785 39.98059463500977 13.10624599456787 34.59031677246094 13.10624599456787 27.96476554870605 C 13.10624599456787 21.3392162322998 18.49651527404785 15.94894599914551 25.1220645904541 15.94894599914551 C 27.7560863494873 15.94894599914551 30.36709594726562 16.85063552856445 32.47412490844727 18.48790550231934 C 34.46568298339844 20.03544998168945 35.93402099609375 22.18189239501953 36.64079284667969 24.56647491455078 C 36.85419082641602 24.55669212341309 37.08918762207031 24.54703140258789 37.3640251159668 24.53668594360352 L 37.36897659301758 24.53649520874023 C 39.39578628540039 24.45880508422852 41.69302368164062 24.37073516845703 43.13603591918945 23.51177597045898 C 43.28439712524414 23.42343521118164 43.45397567749023 23.3767261505127 43.62639617919922 23.3767261505127 C 43.96237564086914 23.3767261505127 44.2786750793457 23.55576515197754 44.45187377929688 23.84398651123047 C 44.58439636230469 24.06606483459473 44.62203598022461 24.32490539550781 44.55866622924805 24.57414627075195 C 44.49535369873047 24.82318496704102 44.33887481689453 25.03238487243652 44.11805725097656 25.1632251739502 C 42.25223541259766 26.27294540405273 39.69401550292969 26.37031555175781 37.43694686889648 26.45623588562012 L 37.41177368164062 26.45720481872559 C 36.5305061340332 26.49138641357422 35.69811630249023 26.52365493774414 35.04495620727539 26.61793518066406 C 34.31764602661133 26.72234535217285 33.77476501464844 27.09474563598633 33.55514526367188 27.63971519470215 C 33.39025497436523 28.05103492736816 33.43230438232422 28.52404594421387 33.66010665893555 28.81587600708008 C 34.41623687744141 29.78355598449707 36.72945404052734 29.89042472839355 38.58815383911133 29.97629547119141 C 39.10316467285156 29.99951553344727 39.68753433227539 30.02586555480957 40.21802520751953 30.07208633422852 C 41.0581169128418 30.14469528198242 41.93044662475586 30.55452537536621 42.94052505493164 31.02905464172363 C 44.37723541259766 31.70328521728516 46.1655158996582 32.54250717163086 48.29963684082031 32.54250717163086 C 49.1396369934082 32.54250717163086 49.67254257202148 32.30397796630859 49.95705413818359 32.12168884277344 L 49.95705413818359 20.75895500183105 C 49.88540649414062 20.76122665405273 49.81357192993164 20.76236534118652 49.74167633056641 20.76236534118652 C 48.81205368041992 20.76236534118652 47.92113494873047 20.57811546325684 47.09367370605469 20.21473503112793 C 46.61533737182617 20.00460624694824 46.07695388793945 19.75695610046387 45.50697708129883 19.49475479125977 L 45.45281600952148 19.46984481811523 C 43.82114791870117 18.71908569335938 41.35911560058594 17.58626365661621 40.55910491943359 17.53901481628418 C 39.90274047851562 17.54648208618164 37.48722839355469 18.62566757202148 35.71757507324219 19.59456634521484 C 35.57710647583008 19.67169570922852 35.41764450073242 19.71262550354004 35.25696563720703 19.71262550354004 C 34.90613555908203 19.71262550354004 34.58317565917969 19.52171516418457 34.41410446166992 19.21439552307129 C 34.29032516479492 18.98882484436035 34.26196670532227 18.72913551330566 34.33397674560547 18.48271560668945 C 34.40591430664062 18.2365550994873 34.56942367553711 18.03306579589844 34.79440689086914 17.90971565246582 L 34.82601547241211 17.8923454284668 C 36.11615753173828 17.18331146240234 38.36370468139648 16.02510643005371 39.82303619384766 15.70265197753906 L 39.82303619384766 14.14568519592285 C 39.82303619384766 12.64342594146729 38.60086441040039 11.42125511169434 37.09860610961914 11.42125511169434 L 13.14569568634033 11.42125511169434 Z M 25.12224578857422 17.87021636962891 C 19.55609512329102 17.87021636962891 15.02769565582275 22.39861488342285 15.02769565582275 27.96476554870605 C 15.02769565582275 33.53092575073242 19.55609512329102 38.059326171875 25.12224578857422 38.059326171875 C 29.40631103515625 38.059326171875 33.14781188964844 35.42296981811523 34.59474945068359 31.44419479370117 C 33.47457885742188 31.14570426940918 32.67031478881836 30.66992568969727 32.14590454101562 29.99789619445801 C 31.49077606201172 29.15940475463867 31.3477954864502 27.98100471496582 31.7729549407959 26.92278480529785 C 32.24481582641602 25.75132942199707 33.30076217651367 24.95627784729004 34.67854690551758 24.73026847839355 C 33.3004035949707 20.66323280334473 29.45111083984375 17.87021636962891 25.12224578857422 17.87021636962891 Z M 25.12215614318848 48.27189636230469 C 23.57648468017578 48.27189636230469 22.31898498535156 47.01439666748047 22.31898498535156 45.46872711181641 C 22.31898498535156 43.92305374145508 23.57648468017578 42.66556549072266 25.12215614318848 42.66556549072266 C 26.66782569885254 42.66556549072266 27.92531585693359 43.92305374145508 27.92531585693359 45.46872711181641 C 27.92531585693359 47.01439666748047 26.66782569885254 48.27189636230469 25.12215614318848 48.27189636230469 Z M 25.12215614318848 44.58683395385742 C 24.6358757019043 44.58683395385742 24.24025535583496 44.98244476318359 24.24025535583496 45.46872711181641 C 24.24025535583496 45.95500564575195 24.6358757019043 46.35062408447266 25.12215614318848 46.35062408447266 C 25.60843467712402 46.35062408447266 26.00405502319336 45.95500564575195 26.00405502319336 45.46872711181641 C 26.00405502319336 44.98244476318359 25.60843467712402 44.58683395385742 25.12215614318848 44.58683395385742 Z" stroke="none"/>
          <path d="M 37.09860610961914 50.53569412231445 C 39.38463592529297 50.53569412231445 41.24430465698242 48.676025390625 41.24430465698242 46.38999557495117 L 41.24430465698242 31.82450485229492 C 41.58314514160156 31.96444511413574 41.94557571411133 32.13174438476562 42.33646392822266 32.31553649902344 C 43.90095520019531 33.0496940612793 45.84786605834961 33.96377563476562 48.29954528808594 33.96377563476562 C 50.3057861328125 33.96377563476562 51.22889709472656 32.91565704345703 51.26666641235352 32.87161636352539 C 51.33861541748047 32.7879638671875 51.37823486328125 32.68091583251953 51.37823486328125 32.57109451293945 L 51.37823486328125 19.67337608337402 C 51.37823486328125 19.52947616577148 51.31079483032227 19.39451599121094 51.19646453857422 19.30717468261719 L 51.19655609130859 19.30717468261719 C 51.08324813842773 19.22075653076172 50.93656539916992 19.19293403625488 50.79534530639648 19.2288646697998 C 50.78097534179688 19.23429489135742 49.29201889038086 19.62924385070801 47.66534423828125 18.91305541992188 C 47.18038558959961 18.69987487792969 46.6270751953125 18.44523620605469 46.04686737060547 18.17889595031738 C 44.25619506835938 17.35482597351074 42.42380523681641 16.51518630981445 41.2443962097168 16.22793579101562 L 41.2443962097168 14.14559555053711 C 41.2443962097168 11.85956573486328 39.38472366333008 9.999895095825195 37.09869384765625 9.999895095825195 L 13.14569568634033 9.999895095825195 C 10.8596658706665 9.999895095825195 9.000005722045898 11.85956573486328 9.000005722045898 14.14559555053711 L 9.000005722045898 46.38999557495117 C 9.000005722045898 48.676025390625 10.8596658706665 50.53569412231445 13.14569568634033 50.53569412231445 L 37.09860610961914 50.53569412231445 M 13.14569568634033 10.92125511169434 L 37.09860610961914 10.92125511169434 C 38.87637710571289 10.92125511169434 40.32303619384766 12.3679256439209 40.32303619384766 14.14568519592285 L 40.32303619384766 16.12585639953613 C 38.77687454223633 16.27556610107422 35.43544387817383 18.12832641601562 35.03478622436523 18.34813499450684 C 34.8116569519043 18.4704761505127 34.72975540161133 18.75026512145996 34.85219573974609 18.97339630126953 C 34.97545623779297 19.19745635986328 35.25616836547852 19.27750396728516 35.47745513916016 19.15599632263184 C 37.01053237915039 18.31662559509277 39.73561096191406 17.02883529663086 40.57233428955078 17.03901481628418 C 41.45757675170898 17.08130645751953 43.78865432739258 18.15374565124512 45.66176605224609 19.01559638977051 C 46.24658584594727 19.28460502624512 46.80524444580078 19.54191589355469 47.29471588134766 19.75693511962891 C 48.57315444946289 20.3183536529541 49.77419662475586 20.30121803283691 50.45705413818359 20.22116470336914 L 50.45705413818359 32.3740348815918 C 50.20334625244141 32.588134765625 49.51865386962891 33.04250717163086 48.29963684082031 33.04250717163086 C 46.05405426025391 33.04250717163086 44.20967483520508 32.17697525024414 42.7279167175293 31.48160552978516 C 41.76076507568359 31.02723503112793 40.92499542236328 30.63505554199219 40.17462539672852 30.5701961517334 C 39.66810607910156 30.52606582641602 39.12290573120117 30.50091552734375 38.5650749206543 30.47576522827148 C 36.50125503540039 30.38041496276855 34.16299438476562 30.27152633666992 33.26596450805664 29.12353515625 C 32.9267463684082 28.6889762878418 32.85839462280273 28.0340461730957 33.09138488769531 27.45281600952148 C 33.37927627563477 26.73846626281738 34.06478500366211 26.25351524353027 34.97352600097656 26.12306594848633 C 35.65903472900391 26.02411651611328 36.51286697387695 25.99169540405273 37.41792678833008 25.95659637451172 C 39.61578369140625 25.8729362487793 42.10697555541992 25.77758598327637 43.86318588256836 24.73305511474609 C 44.08180618286133 24.60352516174316 44.15375518798828 24.32014465332031 44.0233039855957 24.10152626037598 C 43.89193725585938 23.8829174041748 43.6094856262207 23.81179237365723 43.39178466796875 23.94141578674316 C 41.83806610107422 24.86627578735352 39.47096633911133 24.95628547668457 37.3828239440918 25.03633499145508 C 36.99828720092773 25.05080604553223 36.62627410888672 25.06637573242188 36.26597595214844 25.08562469482422 C 34.96744537353516 20.06012535095215 30.34942626953125 16.44894599914551 25.1220645904541 16.44894599914551 C 18.77215576171875 16.44894599914551 13.60624599456787 21.61485481262207 13.60624599456787 27.96476554870605 C 13.60624599456787 34.3146858215332 18.77215576171875 39.48059463500977 25.1220645904541 39.48059463500977 C 30.26456642150879 39.48059463500977 34.72690582275391 36.10839462280273 36.1600341796875 31.22475624084473 C 36.93794631958008 31.3183650970459 37.74690628051758 31.36000633239746 38.522705078125 31.39611625671387 C 39.06791687011719 31.4212646484375 39.60049438476562 31.44558525085449 40.09530639648438 31.48787498474121 C 40.16596603393555 31.49395561218262 40.24722671508789 31.51753616333008 40.32295608520508 31.53209495544434 L 40.32295608520508 46.38999557495117 C 40.32295608520508 48.16776657104492 38.87628555297852 49.61442565917969 37.09852600097656 49.61442565917969 L 13.14569568634033 49.61442565917969 C 11.3679256439209 49.61442565917969 9.921265602111816 48.16776657104492 9.921265602111816 46.38999557495117 L 9.921265602111816 14.14568519592285 C 9.921265602111816 12.3679256439209 11.3679256439209 10.92125511169434 13.14569568634033 10.92125511169434 M 25.12224578857422 17.37021636962891 C 29.87570571899414 17.37021636962891 34.0804557800293 20.6146354675293 35.33143615722656 25.15416526794434 C 35.16348648071289 25.17084503173828 34.99812698364258 25.18853569030762 34.84233474731445 25.21091461181641 C 33.59992599487305 25.38992500305176 32.6507453918457 26.08179473876953 32.23690414428711 27.10918617248535 C 31.87798500061035 28.00253486633301 31.99397468566895 28.99133491516113 32.54009628295898 29.69038581848145 L 32.54009628295898 29.6902961730957 C 33.14066696166992 30.45992469787598 34.12338638305664 30.85800552368164 35.24318695068359 31.0813159942627 C 33.88818740844727 35.51094436645508 29.81195640563965 38.559326171875 25.12224578857422 38.559326171875 C 19.28068542480469 38.559326171875 14.52769565582275 33.80633544921875 14.52769565582275 27.96476554870605 C 14.52769565582275 22.12320518493652 19.28068542480469 17.37021636962891 25.12224578857422 17.37021636962891 M 25.12215614318848 47.77189636230469 C 26.39248466491699 47.77189636230469 27.42531585693359 46.73905563354492 27.42531585693359 45.46872711181641 C 27.42531585693359 44.19839477539062 26.39248466491699 43.16556549072266 25.12215614318848 43.16556549072266 C 23.85181617736816 43.16556549072266 22.81898498535156 44.19839477539062 22.81898498535156 45.46872711181641 C 22.81898498535156 46.73905563354492 23.85181617736816 47.77189636230469 25.12215614318848 47.77189636230469 M 25.12215614318848 44.08683395385742 C 25.88413619995117 44.08683395385742 26.50405502319336 44.70674514770508 26.50405502319336 45.46872711181641 C 26.50405502319336 46.23070526123047 25.88413619995117 46.85062408447266 25.12215614318848 46.85062408447266 C 24.36017608642578 46.85062408447266 23.74025535583496 46.23070526123047 23.74025535583496 45.46872711181641 C 23.74025535583496 44.70674514770508 24.36017608642578 44.08683395385742 25.12215614318848 44.08683395385742 M 37.09860610961914 51.53569412231445 L 13.14569568634033 51.53569412231445 C 10.3083553314209 51.53569412231445 8.000005722045898 49.22734451293945 8.000005722045898 46.38999557495117 L 8.000005722045898 14.14559555053711 C 8.000005722045898 11.30824565887451 10.3083553314209 8.999895095825195 13.14569568634033 8.999895095825195 L 37.09869384765625 8.999895095825195 C 39.9360466003418 8.999895095825195 42.2443962097168 11.30824565887451 42.2443962097168 14.14559555053711 L 42.2443962097168 15.48056507110596 C 43.45626831054688 15.88589859008789 44.98127746582031 16.58769607543945 46.46492385864258 17.27047538757324 L 46.56924438476562 17.3183650970459 C 47.10940551757812 17.56636619567871 47.61961364746094 17.80060577392578 48.06776428222656 17.99759483337402 C 48.5875358581543 18.2264461517334 49.15106582641602 18.34235572814941 49.74324417114258 18.34235572814941 C 50.16522216796875 18.34234619140625 50.45853424072266 18.28105735778809 50.52146911621094 18.26668739318848 L 50.54884719848633 18.25972557067871 C 50.66928482055664 18.22908592224121 50.79300689697266 18.21355628967285 50.91656494140625 18.21355628967285 C 51.23578643798828 18.21355628967285 51.55058670043945 18.31955528259277 51.80295562744141 18.51201629638672 C 52.16353607177734 18.78769493103027 52.37823486328125 19.22156524658203 52.37823486328125 19.67337608337402 L 52.37823486328125 32.57109451293945 C 52.37823486328125 32.92042541503906 52.25271606445312 33.25873565673828 52.02480697631836 33.52371597290039 C 51.89923477172852 33.67012405395508 50.71988677978516 34.96377563476562 48.29954528808594 34.96377563476562 C 45.80131149291992 34.96377563476562 43.84017562866211 34.12040710449219 42.24430465698242 33.37657165527344 L 42.24430465698242 46.38999557495117 C 42.24430465698242 49.22734451293945 39.93595504760742 51.53569412231445 37.09860610961914 51.53569412231445 Z M 26.13086318969727 48.61442565917969 L 37.09852600097656 48.61442565917969 C 38.32507705688477 48.61442565917969 39.32295608520508 47.61654663085938 39.32295608520508 46.38999557495117 L 39.32295608520508 32.43682098388672 C 39.05680465698242 32.42181396484375 38.78103637695312 32.40909194946289 38.49690628051758 32.3959846496582 L 38.47662734985352 32.39505386352539 C 37.93043518066406 32.36962890625 37.39232635498047 32.34243774414062 36.85870742797852 32.29906463623047 C 36.02817535400391 34.57023620605469 34.57891845703125 36.5235481262207 32.63215637207031 37.98397445678711 C 30.4549446105957 39.61727523803711 27.85799598693848 40.48059463500977 25.1220645904541 40.48059463500977 C 18.22081565856934 40.48059463500977 12.60624599456787 34.86601638793945 12.60624599456787 27.96476554870605 C 12.60624599456787 21.06351470947266 18.22081565856934 15.44894599914551 25.1220645904541 15.44894599914551 C 27.86662483215332 15.44894599914551 30.58659553527832 16.38798522949219 32.78091430664062 18.09309577941895 C 33.14233779907227 18.37393951416016 33.48732376098633 18.67384910583496 33.81435012817383 18.99063110351562 C 33.77875518798828 18.77691841125488 33.79152297973633 18.5564022064209 33.85404586791992 18.34246635437012 C 33.96342468261719 17.96819496154785 34.21201705932617 17.65880584716797 34.55401611328125 17.47128486633301 L 34.585205078125 17.45415496826172 C 36.03693771362305 16.65631484985352 37.91023635864258 15.71534061431885 39.32303619384766 15.31439876556396 L 39.32303619384766 14.14568519592285 C 39.32303619384766 12.91913509368896 38.32515716552734 11.92125511169434 37.09860610961914 11.92125511169434 L 13.14569568634033 11.92125511169434 C 11.91914558410645 11.92125511169434 10.92126560211182 12.91913509368896 10.92126560211182 14.14568519592285 L 10.92126560211182 46.38999557495117 C 10.92126560211182 47.61654663085938 11.91914558410645 48.61442565917969 13.14569568634033 48.61442565917969 L 24.11344718933105 48.61442565917969 C 22.78385353088379 48.18709564208984 21.81898498535156 46.93847274780273 21.81898498535156 45.46872711181641 C 21.81898498535156 43.64735412597656 23.30078506469727 42.16556549072266 25.12215614318848 42.16556549072266 C 26.94352531433105 42.16556549072266 28.42531585693359 43.64735412597656 28.42531585693359 45.46872711181641 C 28.42531585693359 46.93847274780273 27.4604549407959 48.18709564208984 26.13086318969727 48.61442565917969 Z M 25.12215614318848 45.08683395385742 C 24.91157531738281 45.08683395385742 24.74025535583496 45.25815582275391 24.74025535583496 45.46872711181641 C 24.74025535583496 45.67930603027344 24.91157531738281 45.85062408447266 25.12215614318848 45.85062408447266 C 25.33273506164551 45.85062408447266 25.50405502319336 45.67930603027344 25.50405502319336 45.46872711181641 C 25.50405502319336 45.25815582275391 25.33273506164551 45.08683395385742 25.12215614318848 45.08683395385742 Z M 25.12224578857422 18.37021636962891 C 19.83179473876953 18.37021636962891 15.52769565582275 22.67431640625 15.52769565582275 27.96476554870605 C 15.52769565582275 33.25522613525391 19.83179473876953 37.559326171875 25.12224578857422 37.559326171875 C 29.01477432250977 37.559326171875 32.4359245300293 35.26956939697266 33.93096160888672 31.76438331604004 C 32.97380447387695 31.43309020996094 32.25555801391602 30.95115280151367 31.7517261505127 30.30549621582031 C 30.98738479614258 29.32724571228027 30.81760597229004 27.9594554901123 31.30899620056152 26.73637580871582 C 31.77815437316895 25.57165336608887 32.74388122558594 24.73419189453125 34.01093292236328 24.36855125427246 C 32.55990600585938 20.7878532409668 29.04863739013672 18.37021636962891 25.12224578857422 18.37021636962891 Z M 43.62639617919922 22.8767261505127 C 44.13684463500977 22.8767261505127 44.61736679077148 23.14866638183594 44.88043594360352 23.58642578125 C 45.08234405517578 23.9248046875 45.13959503173828 24.31837463378906 45.04325485229492 24.69734573364258 C 44.94695663452148 25.07610511779785 44.70889663696289 25.39432525634766 44.3729248046875 25.59338569641113 C 42.39843368530273 26.76773643493652 39.77264404296875 26.86768531799316 37.45596694946289 26.95587539672852 L 37.43114471435547 26.95683479309082 C 36.56333541870117 26.99048614501953 35.74364471435547 27.02226638793945 35.11638641357422 27.11280632019043 C 34.79489517211914 27.15895462036133 34.22592544555664 27.31290626525879 34.01889419555664 27.82661628723145 C 33.90849685668945 28.10203552246094 33.95292663574219 28.37842559814453 34.05423736572266 28.50820541381836 C 34.66878509521484 29.29468536376953 36.94743728637695 29.39996528625488 38.61122512817383 29.47683525085449 C 39.13058471679688 29.50024604797363 39.72050476074219 29.52684593200684 40.26142501831055 29.57396507263184 C 41.19001388549805 29.65423583984375 42.09974670410156 30.08162498474121 43.15313720703125 30.57651519775391 C 44.61718368530273 31.26357650756836 46.27700424194336 32.04250717163086 48.29963684082031 32.04250717163086 C 48.82873153686523 32.04250717163086 49.20721054077148 31.93474388122559 49.45705413818359 31.82332611083984 L 49.45705413818359 21.25695991516113 C 48.560302734375 21.22277450561523 47.69889831542969 21.02660179138184 46.89263534545898 20.67253494262695 C 46.41029739379883 20.46065521240234 45.87001419067383 20.21212577819824 45.29801559448242 19.94899559020996 L 45.24386596679688 19.92408561706543 C 43.75590515136719 19.23944854736328 41.27791976928711 18.09930419921875 40.55084991455078 18.03959465026855 C 40.05820465087891 18.07150840759277 37.92152786254883 18.95791435241699 35.95769500732422 20.03313636779785 C 35.74421691894531 20.15035629272461 35.50153732299805 20.21262550354004 35.25696563720703 20.21262550354004 C 35.12884902954102 20.21262550354004 35.00322341918945 20.19588279724121 34.88265228271484 20.1639461517334 C 35.81381225585938 21.32492446899414 36.53595733642578 22.6439037322998 37.00271987915039 24.05041694641113 C 37.11022186279297 24.04604530334473 37.22388458251953 24.04161071777344 37.3452262878418 24.03704643249512 L 37.34982681274414 24.036865234375 C 39.3170051574707 23.96145629882812 41.54666519165039 23.87597465515137 42.88029479980469 23.08212471008301 C 43.1059455871582 22.94777488708496 43.36397552490234 22.8767261505127 43.62639617919922 22.8767261505127 Z" stroke="none" fill="#fff"/>
        </g>
        <path id="Step_2" data-name="Step 2" d="M-.6,1.044H.168V.072A2.612,2.612,0,0,0,2.88-2.412c0-1.776-1.464-2.1-2.712-2.424V-7.1a1.1,1.1,0,0,1,.8.972H2.784A2.522,2.522,0,0,0,.168-8.484v-.972H-.6v.972c-1.56.12-2.688,1.044-2.688,2.46C-3.288-4.248-1.836-3.9-.6-3.588V-1.3A1.068,1.068,0,0,1-1.488-2.34h-1.8C-3.252-.9-2.148-.072-.6.06ZM1.14-2.34A1.073,1.073,0,0,1,.168-1.272v-2.1C.732-3.18,1.14-2.9,1.14-2.34ZM-1.536-6.108A.99.99,0,0,1-.6-7.14v2.076C-1.152-5.256-1.536-5.544-1.536-6.108Z" transform="translate(25.87 32.221)" fill="#fff"/>
      </g>
    </g>
  </g>
</svg>
