<svg id="Icons_Instagram_Line_Copy_3" data-name="Icons/Instagram/Line Copy 3" xmlns="http://www.w3.org/2000/svg" width="18.972" height="12.646" viewBox="0 0 18.972 12.646">
  <path id="Vector" d="M0,.79a.79.79,0,0,0,.791.79H3.953A.79.79,0,1,0,3.953,0H.791A.79.79,0,0,0,0,.79Z" transform="translate(12.648)" fill="#ff5d21"/>
  <path id="Vector-2" data-name="Vector" d="M3.953,9.484A3.957,3.957,0,0,1,0,5.533V3.952a3.953,3.953,0,0,1,7.905,0v.79a.791.791,0,0,1-.79.79H1.581A2.372,2.372,0,0,0,5.414,7.4a1.181,1.181,0,0,1,.726-.287.845.845,0,0,1,.786.483.622.622,0,0,1-.149.7A3.925,3.925,0,0,1,3.953,9.484Zm0-7.9A2.374,2.374,0,0,0,1.581,3.952H6.324A2.374,2.374,0,0,0,3.953,1.581Z" transform="translate(11.067 3.161)" fill="#ff5d21"/>
  <path id="Vector-3" data-name="Vector" d="M5.534,12.646H1.355A1.357,1.357,0,0,1,0,11.29V1.265A1.266,1.266,0,0,1,1.265,0H5.534A3.162,3.162,0,0,1,7.747,5.419a3.952,3.952,0,0,1-2.213,7.226ZM1.581,6.323v4.742H5.534a2.371,2.371,0,1,0,0-4.742Zm0-4.742V4.742H5.534a1.581,1.581,0,0,0,0-3.162Z" transform="translate(0 0)" fill="#ff5d21"/>
</svg>
