<svg id="Icons_Instagram_Line_Copy_4" data-name="Icons/Instagram/Line Copy 4" xmlns="http://www.w3.org/2000/svg" width="15.81" height="15.807" viewBox="0 0 15.81 15.807">
  <path id="Vector" d="M7.905,15.807A7.9,7.9,0,1,1,15.81,7.9,7.913,7.913,0,0,1,7.905,15.807Zm0-14.226A6.323,6.323,0,1,0,14.229,7.9,6.331,6.331,0,0,0,7.905,1.581Z" fill="#ff5d21"/>
  <path id="Vector-2" data-name="Vector" d="M3.953,1.581h.791A.79.79,0,1,0,4.743,0H3.953A2.371,2.371,0,0,0,1.581,2.371V3.952H.791a.79.79,0,1,0,0,1.581h.791v4.742a.791.791,0,0,0,1.581,0V5.532H4.743a.79.79,0,1,0,0-1.581H3.162V2.371A.79.79,0,0,1,3.953,1.581Z" transform="translate(4.743 3.952)" fill="#ff5d21"/>
</svg>
