<svg id="Icons_Instagram_Line_Copy" data-name="Icons/Instagram/Line Copy" xmlns="http://www.w3.org/2000/svg" width="15.81" height="15.807" viewBox="0 0 15.81 15.807">
  <path id="Vector" d="M7.905,15.807A7.9,7.9,0,1,1,15.81,7.9,7.913,7.913,0,0,1,7.905,15.807Zm0-14.226A6.323,6.323,0,1,0,14.229,7.9,6.331,6.331,0,0,0,7.905,1.581Z" fill="#ff5d21"/>
  <path id="Vector-2" data-name="Vector" d="M9.245,9.376a23.469,23.469,0,0,0-5.892,4.579,7.952,7.952,0,0,1-1.2-1.039,24.943,24.943,0,0,1,6.474-5q-.362-.786-.782-1.552A27.393,27.393,0,0,1,0,7.486,7.937,7.937,0,0,1,.16,5.9a26.164,26.164,0,0,0,6.867-.938A39.837,39.837,0,0,0,3.9.679,7.866,7.866,0,0,1,5.384,0,39.745,39.745,0,0,1,8.559,4.439,19.313,19.313,0,0,0,13.282,1.7,7.943,7.943,0,0,1,14.33,2.887,21.118,21.118,0,0,1,9.351,5.824q.4.747.75,1.512a18.36,18.36,0,0,1,5.67-.632q.039.39.039.79t-.039.791a17.338,17.338,0,0,0-5.054.515,26.3,26.3,0,0,1,1.423,5.369,7.877,7.877,0,0,1-1.488.738A24.963,24.963,0,0,0,9.245,9.376Z" transform="translate(0 0.41)" fill="#ff5d21"/>
</svg>
