<svg id="ic_google_red" xmlns="http://www.w3.org/2000/svg" width="20.947" height="20.947" viewBox="0 0 20.947 20.947">
  <path id="Path_632" data-name="Path 632" d="M4.642,145.27l-.729,2.722-2.665.056a10.492,10.492,0,0,1-.077-9.78h0l2.373.435,1.039,2.358a6.251,6.251,0,0,0,.059,4.208Z" transform="translate(0 -132.611)" fill="#fbbb00"/>
  <path id="Path_633" data-name="Path 633" d="M271.688,208.176a10.47,10.47,0,0,1-3.734,10.124h0l-2.988-.152-.423-2.64a6.242,6.242,0,0,0,2.686-3.188h-5.6v-4.143h10.06Z" transform="translate(-250.924 -199.659)" fill="#518ef8"/>
  <path id="Path_634" data-name="Path 634" d="M46.291,315.391h0a10.477,10.477,0,0,1-15.782-3.2l3.394-2.778a6.229,6.229,0,0,0,8.976,3.189Z" transform="translate(-29.261 -296.75)" fill="#28b446"/>
  <path id="Path_635" data-name="Path 635" d="M44.612,2.411,41.219,5.189A6.228,6.228,0,0,0,32.037,8.45L28.625,5.657h0A10.476,10.476,0,0,1,44.612,2.411Z" transform="translate(-27.453)" fill="#f14336"/>
</svg>
