<svg id="Icons_Instagram_Line" data-name="Icons/Instagram/Line" xmlns="http://www.w3.org/2000/svg" width="15.81" height="15.807" viewBox="0 0 15.81 15.807">
  <path id="Vector" d="M11.067,15.807H4.743A4.748,4.748,0,0,1,0,11.065V4.742A4.748,4.748,0,0,1,4.743,0h6.324A4.748,4.748,0,0,1,15.81,4.742v6.323A4.747,4.747,0,0,1,11.067,15.807ZM4.743,1.581A3.166,3.166,0,0,0,1.581,4.742v6.323a3.165,3.165,0,0,0,3.162,3.161h6.324a3.165,3.165,0,0,0,3.162-3.161V4.742a3.165,3.165,0,0,0-3.162-3.162Z" fill="#ff5d21"/>
  <path id="Vector-2" data-name="Vector" d="M1.581.79a.791.791,0,1,0-.791.79A.79.79,0,0,0,1.581.79Z" transform="translate(11.067 3.161)" fill="#ff5d21"/>
  <path id="Vector-3" data-name="Vector" d="M3.953,7.9A3.952,3.952,0,1,1,7.905,3.952,3.957,3.957,0,0,1,3.953,7.9Zm0-6.323A2.371,2.371,0,1,0,6.324,3.952,2.374,2.374,0,0,0,3.953,1.581Z" transform="translate(3.953 3.952)" fill="#ff5d21"/>
</svg>
