<svg xmlns="http://www.w3.org/2000/svg" width="18.229" height="18.068" viewBox="0 0 18.229 18.068">
  <g id="reddit-svgrepo-com" transform="translate(-16 -21.25)">
    <path id="Path_89330" data-name="Path 89330" d="M17.945,71.153l.664.163a.684.684,0,0,0-.453-.814Zm2-2.856-.539.421a.684.684,0,0,0,.95.125Zm10.342,0-.412.546a.684.684,0,0,0,.95-.125Zm2,2.856-.211-.65a.684.684,0,0,0-.453.814Zm-7.17,7.152a9.319,9.319,0,0,0,5.566-1.739,5.564,5.564,0,0,0,2.409-4.414H31.723a4.2,4.2,0,0,1-1.862,3.32,7.956,7.956,0,0,1-4.746,1.465Zm-7.975-6.152a5.564,5.564,0,0,0,2.409,4.414,9.319,9.319,0,0,0,5.566,1.739V76.938a7.956,7.956,0,0,1-4.746-1.465,4.2,4.2,0,0,1-1.862-3.32Zm.141-1.163a4.856,4.856,0,0,0-.141,1.163h1.367a3.489,3.489,0,0,1,.1-.836ZM16,69.418A2.507,2.507,0,0,0,17.734,71.8l.421-1.3a1.14,1.14,0,0,1-.788-1.084Zm2.507-2.507A2.507,2.507,0,0,0,16,69.418h1.367a1.139,1.139,0,0,1,1.139-1.139Zm1.976.964a2.5,2.5,0,0,0-1.976-.964v1.367a1.136,1.136,0,0,1,.9.439l1.077-.842ZM25.115,66a9.311,9.311,0,0,0-5.583,1.751l.823,1.092a7.95,7.95,0,0,1,4.759-1.475ZM30.7,67.751A9.312,9.312,0,0,0,25.115,66v1.367a7.949,7.949,0,0,1,4.759,1.475Zm.127.967a1.136,1.136,0,0,1,.9-.439V66.912a2.5,2.5,0,0,0-1.976.964l1.077.842Zm.9-.439a1.139,1.139,0,0,1,1.139,1.139h1.367a2.507,2.507,0,0,0-2.507-2.507Zm1.139,1.139a1.14,1.14,0,0,1-.788,1.084l.421,1.3a2.507,2.507,0,0,0,1.734-2.385Zm.228,2.734a4.857,4.857,0,0,0-.141-1.163l-1.328.327a3.489,3.489,0,0,1,.1.836Z" transform="translate(0 -38.987)" fill="#ff5d21"/>
    <ellipse id="Ellipse_2147" data-name="Ellipse 2147" cx="1.642" cy="1.231" rx="1.642" ry="1.231" transform="translate(20.25 31.031)" fill="#ff5d21"/>
    <ellipse id="Ellipse_2148" data-name="Ellipse 2148" cx="1.642" cy="1.231" rx="1.642" ry="1.231" transform="translate(26.818 31.031)" fill="#ff5d21"/>
    <path id="Path_89331" data-name="Path 89331" d="M77.469,138A5.811,5.811,0,0,1,72,138" transform="translate(-49.62 -102.784)" fill="none" stroke="#ff5d21" stroke-linecap="round" stroke-width="1.5"/>
    <circle id="Ellipse_2149" data-name="Ellipse 2149" cx="1.231" cy="1.231" r="1.231" transform="translate(29.281 22)" fill="none" stroke="#ff5d21" stroke-width="1.5"/>
    <path id="Path_89332" data-name="Path 89332" d="M91.956,22.014a.684.684,0,0,0-.8.519l-1.139,5.013a.684.684,0,0,0,1.333.3l.992-4.364,2.743.549a1.37,1.37,0,0,1,.269-1.341l-3.4-.679Z" transform="translate(-65.567)" fill="#ff5d21" fill-rule="evenodd"/>
  </g>
</svg>
