<svg xmlns="http://www.w3.org/2000/svg" width="16.912" height="15.447" viewBox="0 0 16.912 15.447">
  <path id="telegram-alt-svgrepo-com" d="M17.347,2.318a1.575,1.575,0,0,0-1.6-.249L1.973,7.631a1.571,1.571,0,0,0,.08,2.935l2.787.969,1.553,5.137a.767.767,0,0,0,.091.194c.006.009.014.016.021.025a.76.76,0,0,0,.163.166c.018.014.035.026.054.038a.758.758,0,0,0,.239.1h.009l.005,0a.786.786,0,0,0,.155.016l.014,0a.763.763,0,0,0,.231-.04c.017-.006.032-.016.049-.023a.763.763,0,0,0,.157-.088l.117-.1,2.077-2.293,3.1,2.4a1.555,1.555,0,0,0,.954.328,1.579,1.579,0,0,0,1.544-1.255L17.88,3.833a1.56,1.56,0,0,0-.533-1.515ZM7.435,11.78a.764.764,0,0,0-.209.389l-.238,1.156-.6-1.993L9.51,9.7Zm6.382,4.077-3.661-2.836a.77.77,0,0,0-1.041.092l-.665.734L8.685,12.7,14.13,7.26a.769.769,0,0,0-.9-1.225L5.416,10.1,2.553,9.055,16.374,3.526Z" transform="translate(-1 -1.954)" fill="#ff5d21"/>
</svg>
