<svg id="Icons_Instagram_Line_Copy_2" data-name="Icons/Instagram/Line Copy 2" xmlns="http://www.w3.org/2000/svg" width="17.266" height="14.226" viewBox="0 0 17.266 14.226">
  <path id="Vector" d="M7.051,14.226c-2.125,0-5.018-.505-6.736-2.912A1.621,1.621,0,0,1,.184,9.605,1.662,1.662,0,0,1,1.66,8.694H1.84a7.8,7.8,0,0,1-1.5-4.187A5.755,5.755,0,0,1,.814,1.834a1.607,1.607,0,0,1,1.5-.972,1.666,1.666,0,0,1,1.316.628A6.932,6.932,0,0,0,5.78,3.155a8,8,0,0,0,1.267.527,5.275,5.275,0,0,1,.219-.908A3.97,3.97,0,0,1,8.64.834,4.49,4.49,0,0,1,11.4,0a5.987,5.987,0,0,1,1.791.314A5.857,5.857,0,0,1,14.1.693L15.278.457a1.725,1.725,0,0,1,.338-.034,1.662,1.662,0,0,1,1.473,2.4L16.2,4.609a8.247,8.247,0,0,1-2.084,6.511A9.437,9.437,0,0,1,7.051,14.226ZM2.324,2.441a.077.077,0,0,0-.07.045,5.14,5.14,0,0,0,.168,4.066A5.068,5.068,0,0,0,5.307,9.433a.081.081,0,0,1,.055.069.074.074,0,0,1-.037.073,8.048,8.048,0,0,1-3.66.7.077.077,0,0,0-.07.042.075.075,0,0,0,.006.08A4.838,4.838,0,0,0,3.487,11.95a8.266,8.266,0,0,0,3.564.7,7.783,7.783,0,0,0,6.007-2.723A6.877,6.877,0,0,0,14.422,7.36a6.633,6.633,0,0,0,.143-2.987.085.085,0,0,1,.007-.05l1.1-2.2a.079.079,0,0,0-.07-.115l-.016,0-1.777.356H13.8a.084.084,0,0,1-.056-.022A4.368,4.368,0,0,0,11.4,1.581a2.7,2.7,0,0,0-2.159.846,4,4,0,0,0-.623,3.012A.082.082,0,0,1,8.6,5.5a.08.08,0,0,1-.061.028,9,9,0,0,1-6.151-3.06A.079.079,0,0,0,2.324,2.441Z" fill="#ff5d21"/>
</svg>
