<svg xmlns="http://www.w3.org/2000/svg" width="30.82" height="21.588" viewBox="0 0 30.82 21.588">
  <path id="container-truck-svgrepo-com" d="M1.011,4.986A1.027,1.027,0,0,0,0,6.028v9.246A1.027,1.027,0,0,0,1.19,16.3H15.237a1.027,1.027,0,0,0,.335,0h.865V6.028a1.027,1.027,0,1,0-2.055,0H2.055A1.027,1.027,0,0,0,1.011,4.986Zm3.1,3.1A1.028,1.028,0,0,1,5.137,9.11v4.109a1.027,1.027,0,0,1-2.055,0V9.11A1.028,1.028,0,0,1,4.109,8.082Zm4.109,0A1.028,1.028,0,0,1,9.246,9.11v4.109a1.027,1.027,0,0,1-2.055,0V9.11A1.028,1.028,0,0,1,8.219,8.082Zm4.109,0A1.028,1.028,0,0,1,13.355,9.11v4.109a1.027,1.027,0,0,1-2.055,0V9.11A1.028,1.028,0,0,1,12.328,8.082ZM20.547,9.11a2.054,2.054,0,0,0-2.055,2.055v7.191H1.027v3.082a1.027,1.027,0,1,0,0,2.055H4.162a3.578,3.578,0,0,0,7.087,0H20.6a3.578,3.578,0,0,0,7.087,0h2.107a1.027,1.027,0,1,0,0-2.055V16.3H23.629V12.192a1.028,1.028,0,0,1,1.027-1.027h2.936l-.347-.809A2.055,2.055,0,0,0,25.356,9.11ZM7.7,21.438a1.541,1.541,0,1,1-1.541,1.541A1.526,1.526,0,0,1,7.7,21.438Zm16.437,0A1.541,1.541,0,1,1,22.6,22.979,1.526,1.526,0,0,1,24.142,21.438Z" transform="translate(0 -4.986)" fill="#fff"/>
</svg>
