<svg xmlns="http://www.w3.org/2000/svg" width="28.571" height="28.569" viewBox="0 0 28.571 28.569">
  <path id="flight_plane" data-name="flight plane" d="M995.969,665.948a8.283,8.283,0,0,0,1.878-4.364,1.62,1.62,0,0,0-.221-.892.833.833,0,0,0-.282-.285,1.593,1.593,0,0,0-.9-.227,8.232,8.232,0,0,0-4.362,1.878,37.644,37.644,0,0,0-4.3,4.14l-.943.991-3.4-1.02.01-.01a.764.764,0,0,0,0-1.073l-.614-.615a.766.766,0,0,0-.542-.225.752.752,0,0,0-.537.223l-.92.92-.488-.146a.762.762,0,0,0-.061-1.006l-.618-.617a.765.765,0,0,0-.541-.223.748.748,0,0,0-.537.223l-.844.844-3.461-1.037a.865.865,0,0,0-.247-.035.915.915,0,0,0-.639.259l-1.217,1.217a.714.714,0,0,0-.214.5.7.7,0,0,0,.371.626l7.277,4.065a1.267,1.267,0,0,1,.177.134l2.075,2.074c-1.941,2.044-3.669,4.024-5.017,5.747-.126.16-.244.317-.362.471l-5.63-.511a.767.767,0,0,0-.1-.006,1.038,1.038,0,0,0-.7.288l-.567.566a.707.707,0,0,0-.218.5.692.692,0,0,0,.409.634l3.961,1.881a.9.9,0,0,1,.152.109l.329.326a2.408,2.408,0,0,0-.159.761,1,1,0,0,0,.277.732l.014.013,0,0a1,1,0,0,0,.728.273,2.423,2.423,0,0,0,.755-.157l.334.333a.952.952,0,0,1,.1.146l1.877,3.951a.7.7,0,0,0,.631.415h0a.705.705,0,0,0,.5-.211l.582-.585a1.04,1.04,0,0,0,.278-.7.51.51,0,0,0,0-.07l-.513-5.649c.155-.116.31-.236.471-.361,1.725-1.349,3.707-3.079,5.746-5.018l2.076,2.078a1.131,1.131,0,0,1,.136.178l4.058,7.264a.708.708,0,0,0,1.133.167l1.225-1.224a.927.927,0,0,0,.251-.639.866.866,0,0,0-.034-.24l-1.037-3.461.843-.845a.762.762,0,0,0,0-1.076l-.619-.618a.761.761,0,0,0-1.006-.063l-.146-.485.921-.92a.77.77,0,0,0,.222-.54.751.751,0,0,0-.222-.537l-.616-.616a.762.762,0,0,0-1.081,0l-.006.006-1.019-3.4q.528-.5,1.006-.956A37.285,37.285,0,0,0,995.969,665.948Z" transform="translate(-969.278 -660.178)" fill="#ff5d21"/>
</svg>
